<svg viewBox="0 0 330 200" xmlns="http://www.w3.org/2000/svg"><g><g><g><g><g><line x1="60" y1="177" x2="55" y2="177" style="visibility: inherit;" fill="rgb(0, 0, 0)" stroke="rgb(204, 204, 204)" stroke-width="1px"></line><line x1="60" y1="160.9090909090909" x2="55" y2="160.9090909090909" style="visibility: inherit;" fill="rgb(0, 0, 0)" stroke="rgb(204, 204, 204)" stroke-width="1px"></line><line x1="60" y1="144.8181818181818" x2="55" y2="144.8181818181818" style="visibility: inherit;" fill="rgb(0, 0, 0)" stroke="rgb(204, 204, 204)" stroke-width="1px"></line><line x1="60" y1="128.72727272727272" x2="55" y2="128.72727272727272" style="visibility: inherit;" fill="rgb(0, 0, 0)" stroke="rgb(204, 204, 204)" stroke-width="1px"></line><line x1="60" y1="112.63636363636365" x2="55" y2="112.63636363636365" style="visibility: inherit;" fill="rgb(0, 0, 0)" stroke="rgb(204, 204, 204)" stroke-width="1px"></line><line x1="60" y1="96.54545454545453" x2="55" y2="96.54545454545453" style="visibility: inherit;" fill="rgb(0, 0, 0)" stroke="rgb(204, 204, 204)" stroke-width="1px"></line><line x1="60" y1="80.45454545454547" x2="55" y2="80.45454545454547" style="visibility: inherit;" fill="rgb(0, 0, 0)" stroke="rgb(204, 204, 204)" stroke-width="1px"></line><line x1="60" y1="64.36363636363635" x2="55" y2="64.36363636363635" style="visibility: inherit;" fill="rgb(0, 0, 0)" stroke="rgb(204, 204, 204)" stroke-width="1px"></line><line x1="60" y1="48.272727272727266" x2="55" y2="48.272727272727266" style="visibility: inherit;" fill="rgb(0, 0, 0)" stroke="rgb(204, 204, 204)" stroke-width="1px"></line><line x1="60" y1="32.18181818181815" x2="55" y2="32.18181818181815" style="visibility: inherit;" fill="rgb(0, 0, 0)" stroke="rgb(204, 204, 204)" stroke-width="1px"></line><line x1="60" y1="16.090909090909115" x2="55" y2="16.090909090909115" style="visibility: inherit;" fill="rgb(0, 0, 0)" stroke="rgb(204, 204, 204)" stroke-width="1px"></line><line x1="60" y1="0" x2="55" y2="0" style="visibility: inherit;" fill="rgb(0, 0, 0)" stroke="rgb(204, 204, 204)" stroke-width="1px"></line></g><g transform="translate(50, 0)"><text x="0" y="177" dx="0em" dy="0.3em" style="text-anchor: end; visibility: hidden; font-family: Roboto, sans-serif; font-size: 12px; font-weight: 200;" fill="rgb(255, 255, 255)" stroke="none" stroke-width="1px">0.01</text><text x="0" y="160.9090909090909" dx="0em" dy="0.3em" style="text-anchor: end; visibility: inherit; font-family: Roboto, sans-serif; font-size: 12px; font-weight: 200;" fill="rgb(255, 255, 255)" stroke="none" stroke-width="1px">0.012</text><text x="0" y="144.8181818181818" dx="0em" dy="0.3em" style="text-anchor: end; visibility: hidden; font-family: Roboto, sans-serif; font-size: 12px; font-weight: 200;" fill="rgb(255, 255, 255)" stroke="none" stroke-width="1px">0.014</text><text x="0" y="128.72727272727272" dx="0em" dy="0.3em" style="text-anchor: end; visibility: inherit; font-family: Roboto, sans-serif; font-size: 12px; font-weight: 200;" fill="rgb(255, 255, 255)" stroke="none" stroke-width="1px">0.016</text><text x="0" y="112.63636363636365" dx="0em" dy="0.3em" style="text-anchor: end; visibility: hidden; font-family: Roboto, sans-serif; font-size: 12px; font-weight: 200;" fill="rgb(255, 255, 255)" stroke="none" stroke-width="1px">0.018</text><text x="0" y="96.54545454545453" dx="0em" dy="0.3em" style="text-anchor: end; visibility: inherit; font-family: Roboto, sans-serif; font-size: 12px; font-weight: 200;" fill="rgb(255, 255, 255)" stroke="none" stroke-width="1px">0.02</text><text x="0" y="80.45454545454547" dx="0em" dy="0.3em" style="text-anchor: end; visibility: hidden; font-family: Roboto, sans-serif; font-size: 12px; font-weight: 200;" fill="rgb(255, 255, 255)" stroke="none" stroke-width="1px">0.022</text><text x="0" y="64.36363636363635" dx="0em" dy="0.3em" style="text-anchor: end; visibility: inherit; font-family: Roboto, sans-serif; font-size: 12px; font-weight: 200;" fill="rgb(255, 255, 255)" stroke="none" stroke-width="1px">0.024</text><text x="0" y="48.272727272727266" dx="0em" dy="0.3em" style="text-anchor: end; visibility: hidden; font-family: Roboto, sans-serif; font-size: 12px; font-weight: 200;" fill="rgb(255, 255, 255)" stroke="none" stroke-width="1px">0.026</text><text x="0" y="32.18181818181815" dx="0em" dy="0.3em" style="text-anchor: end; visibility: inherit; font-family: Roboto, sans-serif; font-size: 12px; font-weight: 200;" fill="rgb(255, 255, 255)" stroke="none" stroke-width="1px">0.028</text><text x="0" y="16.090909090909115" dx="0em" dy="0.3em" style="text-anchor: end; visibility: hidden; font-family: Roboto, sans-serif; font-size: 12px; font-weight: 200;" fill="rgb(255, 255, 255)" stroke="none" stroke-width="1px">0.03</text><text x="0" y="0" dx="0em" dy="0.3em" style="text-anchor: end; visibility: hidden; font-family: Roboto, sans-serif; font-size: 12px; font-weight: 200;" fill="rgb(255, 255, 255)" stroke="none" stroke-width="1px">0.032</text></g><line x1="60" y1="0" x2="60" y2="177" fill="rgb(0, 0, 0)" stroke="rgb(204, 204, 204)" stroke-width="1px"></line></g></g><g transform="translate(60, 0)" clip-path="url(#clip_0)"><clipPath id="clip_0"><rect width="270" height="177"></rect></clipPath><g><g><g><line x1="0" y1="0" x2="0" y2="177" fill="rgb(0, 0, 0)" stroke="rgb(189, 189, 189)" stroke-width="1px" opacity="0.25"></line><line x1="22.5" y1="0" x2="22.5" y2="177" fill="rgb(0, 0, 0)" stroke="rgb(189, 189, 189)" stroke-width="1px" opacity="0.25"></line><line x1="45" y1="0" x2="45" y2="177" fill="rgb(0, 0, 0)" stroke="rgb(189, 189, 189)" stroke-width="1px" opacity="0.25"></line><line x1="67.5" y1="0" x2="67.5" y2="177" fill="rgb(0, 0, 0)" stroke="rgb(189, 189, 189)" stroke-width="1px" opacity="0.25"></line><line x1="90" y1="0" x2="90" y2="177" fill="rgb(0, 0, 0)" stroke="rgb(189, 189, 189)" stroke-width="1px" opacity="0.25"></line><line x1="112.5" y1="0" x2="112.5" y2="177" fill="rgb(0, 0, 0)" stroke="rgb(189, 189, 189)" stroke-width="1px" opacity="0.25"></line><line x1="135" y1="0" x2="135" y2="177" fill="rgb(0, 0, 0)" stroke="rgb(189, 189, 189)" stroke-width="1px" opacity="0.25"></line><line x1="157.5" y1="0" x2="157.5" y2="177" fill="rgb(0, 0, 0)" stroke="rgb(189, 189, 189)" stroke-width="1px" opacity="0.25"></line><line x1="180" y1="0" x2="180" y2="177" fill="rgb(0, 0, 0)" stroke="rgb(189, 189, 189)" stroke-width="1px" opacity="0.25"></line><line x1="202.5" y1="0" x2="202.5" y2="177" fill="rgb(0, 0, 0)" stroke="rgb(189, 189, 189)" stroke-width="1px" opacity="0.25"></line><line x1="225" y1="0" x2="225" y2="177" fill="rgb(0, 0, 0)" stroke="rgb(189, 189, 189)" stroke-width="1px" opacity="0.25"></line><line x1="247.5" y1="0" x2="247.5" y2="177" fill="rgb(0, 0, 0)" stroke="rgb(189, 189, 189)" stroke-width="1px" opacity="0.25"></line><line x1="270" y1="0" x2="270" y2="177" fill="rgb(0, 0, 0)" stroke="rgb(189, 189, 189)" stroke-width="1px" opacity="0.25"></line></g><g><line x1="0" y1="177" x2="270" y2="177" fill="rgb(0, 0, 0)" stroke="rgb(189, 189, 189)" stroke-width="1px" opacity="0.25"></line><line x1="0" y1="160.9090909090909" x2="270" y2="160.9090909090909" fill="rgb(0, 0, 0)" stroke="rgb(189, 189, 189)" stroke-width="1px" opacity="0.25"></line><line x1="0" y1="144.8181818181818" x2="270" y2="144.8181818181818" fill="rgb(0, 0, 0)" stroke="rgb(189, 189, 189)" stroke-width="1px" opacity="0.25"></line><line x1="0" y1="128.72727272727272" x2="270" y2="128.72727272727272" fill="rgb(0, 0, 0)" stroke="rgb(189, 189, 189)" stroke-width="1px" opacity="0.25"></line><line x1="0" y1="112.63636363636365" x2="270" y2="112.63636363636365" fill="rgb(0, 0, 0)" stroke="rgb(189, 189, 189)" stroke-width="1px" opacity="0.25"></line><line x1="0" y1="96.54545454545453" x2="270" y2="96.54545454545453" fill="rgb(0, 0, 0)" stroke="rgb(189, 189, 189)" stroke-width="1px" opacity="0.25"></line><line x1="0" y1="80.45454545454547" x2="270" y2="80.45454545454547" fill="rgb(0, 0, 0)" stroke="rgb(189, 189, 189)" stroke-width="1px" opacity="0.25"></line><line x1="0" y1="64.36363636363635" x2="270" y2="64.36363636363635" fill="rgb(0, 0, 0)" stroke="rgb(189, 189, 189)" stroke-width="1px" opacity="0.25"></line><line x1="0" y1="48.272727272727266" x2="270" y2="48.272727272727266" fill="rgb(0, 0, 0)" stroke="rgb(189, 189, 189)" stroke-width="1px" opacity="0.25"></line><line x1="0" y1="32.18181818181815" x2="270" y2="32.18181818181815" fill="rgb(0, 0, 0)" stroke="rgb(189, 189, 189)" stroke-width="1px" opacity="0.25"></line><line x1="0" y1="16.090909090909115" x2="270" y2="16.090909090909115" fill="rgb(0, 0, 0)" stroke="rgb(189, 189, 189)" stroke-width="1px" opacity="0.25"></line><line x1="0" y1="0" x2="270" y2="0" fill="rgb(0, 0, 0)" stroke="rgb(189, 189, 189)" stroke-width="1px" opacity="0.25"></line></g></g></g><g><g><line x1="0" y1="257.45454545454544" x2="270" y2="257.45454545454544" fill="rgb(0, 0, 0)" stroke="rgb(153, 153, 153)" stroke-width="1.5px"></line></g></g><g><g><line x1="22.5" y1="0" x2="22.5" y2="177" fill="rgb(0, 0, 0)" stroke="rgb(153, 153, 153)" stroke-width="1.5px"></line></g></g><g><g><g><g><g><path stroke="rgb(255, 112, 67)" stroke-width="2px" d="M29.25,-11.943275769607174L31.5,22.988472244597666L33.75,46.40392682784069L36,64.53707262041392L38.25,78.5046289532164L40.5,87.80284082819595L42.75,95.04475045442379L45,98.89480709973567L47.25,103.81774308001133L49.5,107.82613912817834L51.75,111.9715441626305L54,113.68182133568264L56.25,115.7230131408115L58.5,118.32272786682267L60.75,119.98713852857693L63,121.50481141790785L65.25,123.73457056863549L67.5,123.55189651573198L69.75,125.72372500154695L72,128.0902304489697L74.25,129.72441709906775L76.5,131.14885953669284L78.75,132.14915192433136L81,133.04773934100416L83.25,133.82521694799917L85.5,134.9421362876322L87.75,135.10410913460376L90,137.13210897183149L92.25,139.38907203153482L94.5,139.7530492051941L96.75,141.46521677037643L99,142.4489354956015L101.25,141.13422833027587L103.5,142.7628517097583L105.75,143.39781538136967L108,144.60914026924175L110.25,144.7560856027347L112.5,146.12981795717747L114.75,145.45037050753334L117,147.51298372496453L119.25,148.85839266247223L121.5,149.53300446540808L123.75,151.07566336537232L126,150.6884403270301L128.25,152.13224726355057L130.5,150.8774764516216L132.75,152.46312227784634L135,153.49974016538465L137.25,153.68020446062317L139.5,154.3931491638123L141.75,154.80015462116202L144,155.39449274918408L146.25,156.08279491537874L148.5,156.5842105766941L150.75,157.67695902059793L153,156.51870861526152L155.25,157.44601309523478L157.5,158.0474251958351L159.75,158.6833972519302L162,159.6764561713679L164.25,159.55131440021984L166.5,161.13115316330968L168.75,161.73199066489684L171,161.49461861654694L173.25,160.82757156003623L175.5,162.08049582717106L177.75,162.33721457654786L180,162.50403173367005L182.25,163.67809929446634L184.5,163.26335332188216L186.75,164.3696800576423L189,164.10154648842877L191.25,164.61747124639268L193.5,164.61799137636655L195.75,164.91470512709347L198,165.97995726944347L200.25,165.13467548435096L202.5,165.14050423630087L204.75,165.28934602523833L207,165.1441019277328L209.25,166.0829061577596L211.5,166.34092440501482L213.75,167.4684563848116L216,167.56480827643176L218.25,167.56569724657356L220.5,166.68943986942034L222.75,167.7049777379883L225,168.1116561136938L227.25,168.4357144291578L229.5,167.9555024780152L231.75,168.45149371312692L234,169.06565505558956L236.25,169.70363599156346L238.5,168.98387530909076L240.75,169.19375696419425L243,169.79364270406757L245.25,170.94624346660794" style="fill: none;" fill="none"></path></g><g><path stroke="rgb(0, 119, 187)" stroke-width="2px" d="M31.5,-0.010970892531841026L33.75,24.01634722469529L36,43.51829356909429L38.25,58.262416296649654L40.5,70.05260128021715L42.75,78.09157402717791L45,83.46444447298815L47.25,86.98887846713588L49.5,90.73253312834096L51.75,94.75022780845926L54,98.99808277126824L56.25,100.86465680672156L58.5,103.918650414828L60.75,105.78963485294115L63,107.12602462584309L65.25,109.53859588510193L67.5,110.61143429030218L69.75,111.11004556854219L72,113.65350329304955L74.25,115.66711627435934L76.5,116.88932271360137L78.75,117.86139895445415L81,120.13075469496619L83.25,121.5744111081668L85.5,122.57677165625707L87.75,122.52190429549596L90,125.30583417355105L92.25,126.64810413283546L94.5,127.09003574346002L96.75,129.23377904498636L99,129.19880553111983L101.25,129.75169467807115L103.5,130.0838837317322L105.75,131.16167532922034L108,133.1961067923622L110.25,133.84463976502892L112.5,133.88845912193716L114.75,133.53736265749728L117,135.8302879704577L119.25,137.12192471433912L121.5,138.6162354424532L123.75,138.84450495203473L126,139.142039792826L128.25,140.2515671810482L130.5,139.76610236449406L132.75,140.68797711252122L135,141.58631247223317L137.25,141.42665645580348L139.5,142.35023475647645L141.75,143.10349242433577L144,143.70068666203022L146.25,143.7887338168216L148.5,143.63147580263131L150.75,144.2206964901948L153,143.06334285061732L155.25,144.37177444104879L157.5,146.3185137150775L159.75,147.01912236454268L162,145.93086136480025L164.25,146.8669449014276L166.5,148.6129369105854L168.75,149.49817866480103L171,148.87697057621224L173.25,148.82084829043907L175.5,149.77012527584878L177.75,149.9010563142453L180,150.34649195668857L182.25,150.6450437486851L184.5,150.77780567834336L186.75,150.75950348297312L189,151.83662207552794L191.25,151.66755934786747L193.5,151.84803808374917L195.75,151.77978928743755L198,153.0151559107404L200.25,152.76540211613562L202.5,153.12668642267934L204.75,152.962073706778L207,153.4064344037724L209.25,153.38956693199916L211.5,154.28859160841276L213.75,154.18131703247184L216,153.90079372278947L218.25,153.92057284451238L220.5,154.07096630408213L222.75,154.6661228421397L225,154.73782368065952L227.25,154.61383913182803L229.5,155.05373800381176L231.75,155.7538248325888L234,156.8312122430614L236.25,156.81676972382894L238.5,156.54808812721748L240.75,156.4018709904638L243,156.05486492318758L245.25,157.38055957069795" style="fill: none;" fill="none"></path></g></g></g></g><g opacity="0.2"><g><g><g><path stroke="rgb(255, 112, 67)" stroke-width="2px" d="M24.75,-36.686815019358264L27,21.605069373818967L29.25,44.83317597074944L31.5,68.59536245194347L33.75,78.7959300801158L36,90.46776123412631L38.25,98.8694601749832L40.5,101.51589725911617L42.75,105.79814224825665L45,104.63497233729471L47.25,111.17535665021703L49.5,113.82564509185877L51.75,118.1815304342996L54,116.24522672864524L56.25,118.78336124189876L58.5,122.22119984369387L60.75,122.48333192752168L63,123.78108954971486L65.25,127.07900548590854L67.5,123.27789545465599L69.75,128.98139626532793L72,131.63994189758193L74.25,132.17567771571603L76.5,133.28551306880334L78.75,133.649586239999L81,134.3956181667745L83.25,134.99143216488037L85.5,136.61751426824114L87.75,135.3470683155412L90,140.17410805516622L92.25,142.77451617202976L94.5,140.29901492223144L96.75,144.03346799551085L99,143.924513541162L101.25,139.16216761618853L103.5,145.20578675378454L105.75,144.3502608828924L108,146.426127594303L110.25,144.97650360248306L112.5,148.19041648608717L114.75,144.4311993338845L117,150.60690354962242L119.25,150.87650606815112L121.5,150.5449221696366L123.75,153.38965171507814L126,150.10760576955298L128.25,154.29795766825026L130.5,148.9953202337704L132.75,154.84159101715142L135,155.05466699667952L137.25,153.9509009034796L139.5,155.4625662185929L141.75,155.41066280718553L144,156.28599994121626L146.25,157.11524816467002L148.5,157.33633406866682L150.75,159.31608168645337L153,154.7813330072571L155.25,158.8369698151946L157.5,158.94954334673557L159.75,159.63735533607277L162,161.1660445505245L164.25,159.36360174349764L166.5,163.5009113079445L168.75,162.63324691727757L171,161.1385605440221L173.25,159.82700097527015L175.5,163.95988222787327L177.75,162.72229270061308L180,162.75425746935335L182.25,165.43920063566077L184.5,162.6412343630059L186.75,166.02917016128248L189,163.69934613460845L191.25,165.39135838333857L193.5,164.61877157132733L195.75,165.3597757531838L198,167.57783548296854L200.25,163.86675280671227L202.5,165.14924736422572L204.75,165.51260870864445L207,164.92623578147456L209.25,167.49111250279978L211.5,166.72795177589762L213.75,169.15975435450673L216,167.709336113862L218.25,167.56703070178628L220.5,165.37505380369046L222.75,169.22828454084018L225,168.72167367725208L227.25,168.92180190235376L229.5,167.23518455130133L231.75,169.1954805657945L234,169.98689706928351L236.25,170.66060739552432L238.5,167.9042342853817L240.75,169.5085794468495L243,170.69347131387755L245.25,172.67514461041853" style="fill: none;" fill="none"></path></g><g><path stroke="rgb(0, 119, 187)" stroke-width="2px" d="M27,-15.595882151614518L29.25,15.415308452465334L31.5,49.23181587728588L33.75,57.25477801534262L36,71.40638887272638L38.25,79.75948877700351L40.5,87.44083400544795L42.75,90.02851166237483L45,91.47501860220322L47.25,92.25634964420036L49.5,96.33579143814065L51.75,100.76889874650672L54,105.36487202143127L56.25,103.66320140727542L58.5,108.49834847924383L60.75,108.5956364673647L63,109.13040569966489L65.25,113.15723225542091L67.5,112.22063306109473L69.75,111.85794607888569L72,117.46863966367461L74.25,118.68751189315861L76.5,118.72262368554419L78.75,119.31950917027213L81,123.53478249907494L83.25,123.73989351161502L85.5,124.08031155507673L87.75,122.43960328467868L90,129.48172806745225L92.25,128.66150880469516L94.5,127.75293310663916L96.75,132.44939384372398L99,129.14634526182306L101.25,130.58102838424116L103.5,130.58216730708426L105.75,132.77836271544749L108,136.2477539757436L110.25,134.8174392218617L112.5,133.95418815721166L114.75,133.01071796125987L117,139.2696759382432L119.25,139.0593798296018L121.5,140.857701534236L123.75,139.18690921637145L126,139.58834205398506L128.25,141.9158582633192L130.5,139.03790513967925L132.75,142.07078923454338L135,142.9338155117902L137.25,141.1871724311601L139.5,143.73560220748186L141.75,144.23337892612273L144,144.59647801857102L146.25,143.9208045490086L148.5,143.39558878134596L150.75,145.1045275215398L153,141.32731239125133L155.25,146.33442182669586L157.5,149.2386226261204L159.75,148.07003533874047L162,144.29846986518666L164.25,148.2710702063685L166.5,151.23192492432216L168.75,150.82604129612446L171,147.945158443329L173.25,148.73666486177933L175.5,151.19404075396332L177.75,150.09745287184012L180,151.01464542035353L182.25,151.0928714366799L184.5,150.9769485728307L186.75,150.73205018991774L189,153.4522999643602L191.25,151.4139652563767L193.5,152.11875618757173L195.75,151.67741609297016L198,154.86820584569466L200.25,152.3907714242285L202.5,153.66861288249493L204.75,152.715154632926L207,154.07297544926405L209.25,153.36426572433928L211.5,155.6371286230331L213.75,154.02040516856042L216,153.48000875826585L218.25,153.95024152709678L220.5,154.29655649343675L222.75,155.55885764922607L225,154.84537493843925L227.25,154.42786230858076L229.5,155.71358631178737L231.75,156.80395507575437L234,158.44729335877028L236.25,156.79510594498026L238.5,156.14506573230028L240.75,156.18254528533328L243,155.53435582227328L245.25,159.3691015419635" style="fill: none;" fill="none"></path></g></g></g></g></g></g><g transform="translate(60, 177)" clip-path="url(#clip_1)"><clipPath id="clip_1"><rect width="270" height="23"></rect></clipPath><g><g><line x1="0" y1="0" x2="0" y2="5" style="visibility: inherit;" fill="rgb(0, 0, 0)" stroke="rgb(204, 204, 204)" stroke-width="1px"></line><line x1="22.5" y1="0" x2="22.5" y2="5" style="visibility: inherit;" fill="rgb(0, 0, 0)" stroke="rgb(204, 204, 204)" stroke-width="1px"></line><line x1="45" y1="0" x2="45" y2="5" style="visibility: inherit;" fill="rgb(0, 0, 0)" stroke="rgb(204, 204, 204)" stroke-width="1px"></line><line x1="67.5" y1="0" x2="67.5" y2="5" style="visibility: inherit;" fill="rgb(0, 0, 0)" stroke="rgb(204, 204, 204)" stroke-width="1px"></line><line x1="90" y1="0" x2="90" y2="5" style="visibility: inherit;" fill="rgb(0, 0, 0)" stroke="rgb(204, 204, 204)" stroke-width="1px"></line><line x1="112.5" y1="0" x2="112.5" y2="5" style="visibility: inherit;" fill="rgb(0, 0, 0)" stroke="rgb(204, 204, 204)" stroke-width="1px"></line><line x1="135" y1="0" x2="135" y2="5" style="visibility: inherit;" fill="rgb(0, 0, 0)" stroke="rgb(204, 204, 204)" stroke-width="1px"></line><line x1="157.5" y1="0" x2="157.5" y2="5" style="visibility: inherit;" fill="rgb(0, 0, 0)" stroke="rgb(204, 204, 204)" stroke-width="1px"></line><line x1="180" y1="0" x2="180" y2="5" style="visibility: inherit;" fill="rgb(0, 0, 0)" stroke="rgb(204, 204, 204)" stroke-width="1px"></line><line x1="202.5" y1="0" x2="202.5" y2="5" style="visibility: inherit;" fill="rgb(0, 0, 0)" stroke="rgb(204, 204, 204)" stroke-width="1px"></line><line x1="225" y1="0" x2="225" y2="5" style="visibility: inherit;" fill="rgb(0, 0, 0)" stroke="rgb(204, 204, 204)" stroke-width="1px"></line><line x1="247.5" y1="0" x2="247.5" y2="5" style="visibility: inherit;" fill="rgb(0, 0, 0)" stroke="rgb(204, 204, 204)" stroke-width="1px"></line><line x1="270" y1="0" x2="270" y2="5" style="visibility: inherit;" fill="rgb(0, 0, 0)" stroke="rgb(204, 204, 204)" stroke-width="1px"></line></g><g transform="translate(0, 8)"><text x="0" y="0" dx="0em" dy="0.95em" style="text-anchor: middle; visibility: hidden; font-family: Roboto, sans-serif; font-size: 12px; font-weight: 200;" fill="rgb(255, 255, 255)" stroke="none" stroke-width="1px">-10</text><text x="22.5" y="0" dx="0em" dy="0.95em" style="text-anchor: middle; visibility: inherit; font-family: Roboto, sans-serif; font-size: 12px; font-weight: 200;" fill="rgb(255, 255, 255)" stroke="none" stroke-width="1px">0</text><text x="45" y="0" dx="0em" dy="0.95em" style="text-anchor: middle; visibility: inherit; font-family: Roboto, sans-serif; font-size: 12px; font-weight: 200;" fill="rgb(255, 255, 255)" stroke="none" stroke-width="1px">10</text><text x="67.5" y="0" dx="0em" dy="0.95em" style="text-anchor: middle; visibility: inherit; font-family: Roboto, sans-serif; font-size: 12px; font-weight: 200;" fill="rgb(255, 255, 255)" stroke="none" stroke-width="1px">20</text><text x="90" y="0" dx="0em" dy="0.95em" style="text-anchor: middle; visibility: inherit; font-family: Roboto, sans-serif; font-size: 12px; font-weight: 200;" fill="rgb(255, 255, 255)" stroke="none" stroke-width="1px">30</text><text x="112.5" y="0" dx="0em" dy="0.95em" style="text-anchor: middle; visibility: inherit; font-family: Roboto, sans-serif; font-size: 12px; font-weight: 200;" fill="rgb(255, 255, 255)" stroke="none" stroke-width="1px">40</text><text x="135" y="0" dx="0em" dy="0.95em" style="text-anchor: middle; visibility: inherit; font-family: Roboto, sans-serif; font-size: 12px; font-weight: 200;" fill="rgb(255, 255, 255)" stroke="none" stroke-width="1px">50</text><text x="157.5" y="0" dx="0em" dy="0.95em" style="text-anchor: middle; visibility: inherit; font-family: Roboto, sans-serif; font-size: 12px; font-weight: 200;" fill="rgb(255, 255, 255)" stroke="none" stroke-width="1px">60</text><text x="180" y="0" dx="0em" dy="0.95em" style="text-anchor: middle; visibility: inherit; font-family: Roboto, sans-serif; font-size: 12px; font-weight: 200;" fill="rgb(255, 255, 255)" stroke="none" stroke-width="1px">70</text><text x="202.5" y="0" dx="0em" dy="0.95em" style="text-anchor: middle; visibility: inherit; font-family: Roboto, sans-serif; font-size: 12px; font-weight: 200;" fill="rgb(255, 255, 255)" stroke="none" stroke-width="1px">80</text><text x="225" y="0" dx="0em" dy="0.95em" style="text-anchor: middle; visibility: inherit; font-family: Roboto, sans-serif; font-size: 12px; font-weight: 200;" fill="rgb(255, 255, 255)" stroke="none" stroke-width="1px">90</text><text x="247.5" y="0" dx="0em" dy="0.95em" style="text-anchor: middle; visibility: inherit; font-family: Roboto, sans-serif; font-size: 12px; font-weight: 200;" fill="rgb(255, 255, 255)" stroke="none" stroke-width="1px">100</text><text x="270" y="0" dx="0em" dy="0.95em" style="text-anchor: middle; visibility: hidden; font-family: Roboto, sans-serif; font-size: 12px; font-weight: 200;" fill="rgb(255, 255, 255)" stroke="none" stroke-width="1px">110</text></g><line x1="0" y1="0" x2="270" y2="0" fill="rgb(0, 0, 0)" stroke="rgb(204, 204, 204)" stroke-width="1px"></line></g></g></g></g></svg>