<svg viewBox="0 0 330 200" xmlns="http://www.w3.org/2000/svg"><g><g><g><g><g><line x1="60" y1="177" x2="55" y2="177" style="visibility: inherit;" fill="rgb(0, 0, 0)" stroke="rgb(204, 204, 204)" stroke-width="1px"></line><line x1="60" y1="159.3" x2="55" y2="159.3" style="visibility: inherit;" fill="rgb(0, 0, 0)" stroke="rgb(204, 204, 204)" stroke-width="1px"></line><line x1="60" y1="141.6" x2="55" y2="141.6" style="visibility: inherit;" fill="rgb(0, 0, 0)" stroke="rgb(204, 204, 204)" stroke-width="1px"></line><line x1="60" y1="123.89999999999999" x2="55" y2="123.89999999999999" style="visibility: inherit;" fill="rgb(0, 0, 0)" stroke="rgb(204, 204, 204)" stroke-width="1px"></line><line x1="60" y1="106.20000000000002" x2="55" y2="106.20000000000002" style="visibility: inherit;" fill="rgb(0, 0, 0)" stroke="rgb(204, 204, 204)" stroke-width="1px"></line><line x1="60" y1="88.49999999999999" x2="55" y2="88.49999999999999" style="visibility: inherit;" fill="rgb(0, 0, 0)" stroke="rgb(204, 204, 204)" stroke-width="1px"></line><line x1="60" y1="70.8" x2="55" y2="70.8" style="visibility: inherit;" fill="rgb(0, 0, 0)" stroke="rgb(204, 204, 204)" stroke-width="1px"></line><line x1="60" y1="53.10000000000001" x2="55" y2="53.10000000000001" style="visibility: inherit;" fill="rgb(0, 0, 0)" stroke="rgb(204, 204, 204)" stroke-width="1px"></line><line x1="60" y1="35.39999999999999" x2="55" y2="35.39999999999999" style="visibility: inherit;" fill="rgb(0, 0, 0)" stroke="rgb(204, 204, 204)" stroke-width="1px"></line><line x1="60" y1="17.699999999999996" x2="55" y2="17.699999999999996" style="visibility: inherit;" fill="rgb(0, 0, 0)" stroke="rgb(204, 204, 204)" stroke-width="1px"></line><line x1="60" y1="0" x2="55" y2="0" style="visibility: inherit;" fill="rgb(0, 0, 0)" stroke="rgb(204, 204, 204)" stroke-width="1px"></line></g><g transform="translate(50, 0)"><text x="0" y="177" dx="0em" dy="0.3em" style="text-anchor: end; visibility: hidden; font-family: Roboto, sans-serif; font-size: 12px; font-weight: 200;" fill="rgb(255, 255, 255)" stroke="none" stroke-width="1px">0.01</text><text x="0" y="159.3" dx="0em" dy="0.3em" style="text-anchor: end; visibility: inherit; font-family: Roboto, sans-serif; font-size: 12px; font-weight: 200;" fill="rgb(255, 255, 255)" stroke="none" stroke-width="1px">0.015</text><text x="0" y="141.6" dx="0em" dy="0.3em" style="text-anchor: end; visibility: hidden; font-family: Roboto, sans-serif; font-size: 12px; font-weight: 200;" fill="rgb(255, 255, 255)" stroke="none" stroke-width="1px">0.02</text><text x="0" y="123.89999999999999" dx="0em" dy="0.3em" style="text-anchor: end; visibility: inherit; font-family: Roboto, sans-serif; font-size: 12px; font-weight: 200;" fill="rgb(255, 255, 255)" stroke="none" stroke-width="1px">0.025</text><text x="0" y="106.20000000000002" dx="0em" dy="0.3em" style="text-anchor: end; visibility: hidden; font-family: Roboto, sans-serif; font-size: 12px; font-weight: 200;" fill="rgb(255, 255, 255)" stroke="none" stroke-width="1px">0.03</text><text x="0" y="88.49999999999999" dx="0em" dy="0.3em" style="text-anchor: end; visibility: inherit; font-family: Roboto, sans-serif; font-size: 12px; font-weight: 200;" fill="rgb(255, 255, 255)" stroke="none" stroke-width="1px">0.035</text><text x="0" y="70.8" dx="0em" dy="0.3em" style="text-anchor: end; visibility: hidden; font-family: Roboto, sans-serif; font-size: 12px; font-weight: 200;" fill="rgb(255, 255, 255)" stroke="none" stroke-width="1px">0.04</text><text x="0" y="53.10000000000001" dx="0em" dy="0.3em" style="text-anchor: end; visibility: inherit; font-family: Roboto, sans-serif; font-size: 12px; font-weight: 200;" fill="rgb(255, 255, 255)" stroke="none" stroke-width="1px">0.045</text><text x="0" y="35.39999999999999" dx="0em" dy="0.3em" style="text-anchor: end; visibility: hidden; font-family: Roboto, sans-serif; font-size: 12px; font-weight: 200;" fill="rgb(255, 255, 255)" stroke="none" stroke-width="1px">0.05</text><text x="0" y="17.699999999999996" dx="0em" dy="0.3em" style="text-anchor: end; visibility: inherit; font-family: Roboto, sans-serif; font-size: 12px; font-weight: 200;" fill="rgb(255, 255, 255)" stroke="none" stroke-width="1px">0.055</text><text x="0" y="0" dx="0em" dy="0.3em" style="text-anchor: end; visibility: hidden; font-family: Roboto, sans-serif; font-size: 12px; font-weight: 200;" fill="rgb(255, 255, 255)" stroke="none" stroke-width="1px">0.06</text></g><line x1="60" y1="0" x2="60" y2="177" fill="rgb(0, 0, 0)" stroke="rgb(204, 204, 204)" stroke-width="1px"></line></g></g><g transform="translate(60, 0)" clip-path="url(#clip_0)"><clipPath id="clip_0"><rect width="270" height="177"></rect></clipPath><g><g><g><line x1="0" y1="0" x2="0" y2="177" fill="rgb(0, 0, 0)" stroke="rgb(189, 189, 189)" stroke-width="1px" opacity="0.25"></line><line x1="22.5" y1="0" x2="22.5" y2="177" fill="rgb(0, 0, 0)" stroke="rgb(189, 189, 189)" stroke-width="1px" opacity="0.25"></line><line x1="45" y1="0" x2="45" y2="177" fill="rgb(0, 0, 0)" stroke="rgb(189, 189, 189)" stroke-width="1px" opacity="0.25"></line><line x1="67.5" y1="0" x2="67.5" y2="177" fill="rgb(0, 0, 0)" stroke="rgb(189, 189, 189)" stroke-width="1px" opacity="0.25"></line><line x1="90" y1="0" x2="90" y2="177" fill="rgb(0, 0, 0)" stroke="rgb(189, 189, 189)" stroke-width="1px" opacity="0.25"></line><line x1="112.5" y1="0" x2="112.5" y2="177" fill="rgb(0, 0, 0)" stroke="rgb(189, 189, 189)" stroke-width="1px" opacity="0.25"></line><line x1="135" y1="0" x2="135" y2="177" fill="rgb(0, 0, 0)" stroke="rgb(189, 189, 189)" stroke-width="1px" opacity="0.25"></line><line x1="157.5" y1="0" x2="157.5" y2="177" fill="rgb(0, 0, 0)" stroke="rgb(189, 189, 189)" stroke-width="1px" opacity="0.25"></line><line x1="180" y1="0" x2="180" y2="177" fill="rgb(0, 0, 0)" stroke="rgb(189, 189, 189)" stroke-width="1px" opacity="0.25"></line><line x1="202.5" y1="0" x2="202.5" y2="177" fill="rgb(0, 0, 0)" stroke="rgb(189, 189, 189)" stroke-width="1px" opacity="0.25"></line><line x1="225" y1="0" x2="225" y2="177" fill="rgb(0, 0, 0)" stroke="rgb(189, 189, 189)" stroke-width="1px" opacity="0.25"></line><line x1="247.5" y1="0" x2="247.5" y2="177" fill="rgb(0, 0, 0)" stroke="rgb(189, 189, 189)" stroke-width="1px" opacity="0.25"></line><line x1="270" y1="0" x2="270" y2="177" fill="rgb(0, 0, 0)" stroke="rgb(189, 189, 189)" stroke-width="1px" opacity="0.25"></line></g><g><line x1="0" y1="177" x2="270" y2="177" fill="rgb(0, 0, 0)" stroke="rgb(189, 189, 189)" stroke-width="1px" opacity="0.25"></line><line x1="0" y1="159.3" x2="270" y2="159.3" fill="rgb(0, 0, 0)" stroke="rgb(189, 189, 189)" stroke-width="1px" opacity="0.25"></line><line x1="0" y1="141.6" x2="270" y2="141.6" fill="rgb(0, 0, 0)" stroke="rgb(189, 189, 189)" stroke-width="1px" opacity="0.25"></line><line x1="0" y1="123.89999999999999" x2="270" y2="123.89999999999999" fill="rgb(0, 0, 0)" stroke="rgb(189, 189, 189)" stroke-width="1px" opacity="0.25"></line><line x1="0" y1="106.20000000000002" x2="270" y2="106.20000000000002" fill="rgb(0, 0, 0)" stroke="rgb(189, 189, 189)" stroke-width="1px" opacity="0.25"></line><line x1="0" y1="88.49999999999999" x2="270" y2="88.49999999999999" fill="rgb(0, 0, 0)" stroke="rgb(189, 189, 189)" stroke-width="1px" opacity="0.25"></line><line x1="0" y1="70.8" x2="270" y2="70.8" fill="rgb(0, 0, 0)" stroke="rgb(189, 189, 189)" stroke-width="1px" opacity="0.25"></line><line x1="0" y1="53.10000000000001" x2="270" y2="53.10000000000001" fill="rgb(0, 0, 0)" stroke="rgb(189, 189, 189)" stroke-width="1px" opacity="0.25"></line><line x1="0" y1="35.39999999999999" x2="270" y2="35.39999999999999" fill="rgb(0, 0, 0)" stroke="rgb(189, 189, 189)" stroke-width="1px" opacity="0.25"></line><line x1="0" y1="17.699999999999996" x2="270" y2="17.699999999999996" fill="rgb(0, 0, 0)" stroke="rgb(189, 189, 189)" stroke-width="1px" opacity="0.25"></line><line x1="0" y1="0" x2="270" y2="0" fill="rgb(0, 0, 0)" stroke="rgb(189, 189, 189)" stroke-width="1px" opacity="0.25"></line></g></g></g><g><g><line x1="0" y1="212.4" x2="270" y2="212.4" fill="rgb(0, 0, 0)" stroke="rgb(153, 153, 153)" stroke-width="1.5px"></line></g></g><g><g><line x1="22.5" y1="0" x2="22.5" y2="177" fill="rgb(0, 0, 0)" stroke="rgb(153, 153, 153)" stroke-width="1.5px"></line></g></g><g><g><g><g><g><path stroke="rgb(255, 112, 67)" stroke-width="2px" d="M29.25,-5.7992823920924765L31.5,18.79446401093507L33.75,39.25018055549113L36,53.960915114400805L38.25,65.83477804373499L40.5,75.12638515867293L42.75,82.58104080670947L45,88.51132795671086L47.25,94.4073001210607L49.5,98.2172073875045L51.75,102.29329119104034L54,104.46415542020918L56.25,107.6565982494099L58.5,109.93074750202383L60.75,112.60369821266148L63,113.679959463966L65.25,115.78908175098323L67.5,116.41367018049161L69.75,117.96839458727106L72,120.77086098315705L74.25,123.44987289996382L76.5,124.3373627442557L78.75,125.40832644630693L81,127.0681693228849L83.25,128.32590193396356L85.5,129.14695078253817L87.75,130.03444885097394L90,132.01884180392733L92.25,133.39489142334165L94.5,133.3763768892728L96.75,134.63592605809518L99,135.1368645850713L101.25,135.28988827230782L103.5,137.32569704756736L105.75,137.97579310423484L108,138.14811674207905L110.25,138.47524524404898L112.5,139.79439021320223L114.75,140.27922761327162L117,140.59703788460212L119.25,141.4011550839203L121.5,142.20263697247836L123.75,142.71204809037724L126,143.26090178365305L128.25,143.72341330395065L130.5,143.95688706127675L132.75,145.40759528928896L135,146.10455939981026L137.25,146.2001814896627L139.5,146.88026188700098L141.75,147.3743956684398L144,148.06971161123124L146.25,148.83097696099313L148.5,148.73122250374334L150.75,149.05614496133438L153,149.68289765394758L155.25,150.26068943009994L157.5,150.59247313956155L159.75,151.1288143850549L162,151.8046172122469L164.25,152.0187241447157L166.5,152.22540353072802L168.75,152.70941220482064L171,153.10397250270768L173.25,153.23202499101117L175.5,153.73862482279273L177.75,154.01568216544229L180,154.20970532930994L182.25,154.4208162262267L184.5,154.79533970917618L186.75,154.82230154672476L189,154.84977508544455L191.25,155.0502990696402L193.5,155.17884775242635L195.75,155.37502077425378L198,155.65870544794117L200.25,155.7340768282587L202.5,155.84297431498618L204.75,155.99004910343797L207,156.01114044817632L209.25,156.33676429887024L211.5,156.50882042288427L213.75,156.41402754449632L216,156.97635503479114L218.25,157.40275679062768L220.5,157.3949316911755L222.75,157.17514146166192L225,157.33048772005526L227.25,157.32991105340892L229.5,156.8518270827709L231.75,157.19804264678825L234,157.9076840127961L236.25,157.8609267476473L238.5,158.2946178444191L240.75,157.91796854811693L243,158.15841259227864L245.25,158.19153717319173" style="fill: none;" fill="none"></path></g><g><path stroke="rgb(0, 119, 187)" stroke-width="2px" d="M29.25,-18.890624585440914L31.5,6.0648426765911045L33.75,27.558201226370368L36,44.291469866812065L38.25,56.57893313404858L40.5,66.55583152828663L42.75,74.73601267650938L45,81.01979161909296L47.25,86.23487018957182L49.5,90.40577235097153L51.75,93.93556761462887L54,96.79629616074749L56.25,100.14508338315609L58.5,102.80781536995084L60.75,104.84791898422311L63,106.61930936190106L65.25,108.77544755934947L67.5,110.01754731080005L69.75,111.42037598211485L72,113.62232602528941L74.25,115.81330671759119L76.5,117.23475524160699L78.75,119.0445657963793L81,120.44626011396532L83.25,122.83349589107635L85.5,123.38799776718442L87.75,124.01935149194219L90,125.4034542790847L92.25,125.51988236708979L94.5,126.69248824177869L96.75,127.7845378441097L99,128.27053995267454L101.25,130.44575009465245L103.5,130.5607255246604L105.75,131.27477342491432L108,132.13743316249568L110.25,132.54247873012636L112.5,133.28847310057162L114.75,133.86138552282534L117,134.10207244733536L119.25,135.17432739800648L121.5,136.34203493050813L123.75,136.50463205906024L126,137.48390052281866L128.25,137.55247963764256L130.5,137.833687584988L132.75,139.0297550454187L135,139.36501260724515L137.25,139.65648588375444L139.5,139.9688577379959L141.75,140.69174458600222L144,141.020100436313L146.25,141.94705151480653L148.5,142.10142984427347L150.75,142.2110793026527L153,142.6369702453757L155.25,143.268913775405L157.5,144.03178947312875L159.75,144.7785353853896L162,145.09238401380748L164.25,144.9371053452943L166.5,145.5776236078533L168.75,145.91507136710837L171,146.04863782816145L173.25,146.27425723488935L175.5,146.75849173555258L177.75,146.96479050928048L180,147.11275042422824L182.25,147.49676874237187L184.5,147.4963689867075L186.75,147.53336016138886L189,147.71905647158917L191.25,148.09133937978922L193.5,148.53395968451605L195.75,148.61770751103464L198,148.92603348567903L200.25,148.92436489149821L202.5,148.91206993630465L204.75,149.1555988643821L207,149.16226339127158L209.25,149.26322208574734L211.5,149.68878586787773L213.75,149.48406404732938L216,149.7907671933131L218.25,150.08964980928639L220.5,150.18443677656973L222.75,150.0599224265404L225,150.1933103654377L227.25,150.36601188561872L229.5,150.18783643175098L231.75,150.39144732313713L234,150.78003884170866L236.25,150.99623195477972L238.5,151.32574941664132L240.75,151.44680870800727L243,151.53783560889667L245.25,151.37551955698555" style="fill: none;" fill="none"></path></g></g></g></g><g opacity="0.2"><g><g><g><path stroke="rgb(255, 112, 67)" stroke-width="2px" d="M27,-3.767816966772087L29.25,24.9379492342472L31.5,50.904059314727775L33.75,67.54780059456824L36,74.99750090539455L38.25,83.14698418378829L40.5,88.82970085144042L42.75,93.65033564865588L45,97.35297141373157L47.25,103.21917274743318L49.5,103.9196282789111L51.75,108.3994314238429L54,107.71789999455213L56.25,112.44301093518733L58.5,113.34100903719663L60.75,116.6124456167221L63,115.2941873833537L65.25,118.95257239937781L67.5,117.35051857084035L69.75,120.30043003857135L72,124.97450524717568L74.25,127.46835903972386L76.5,125.6685912027955L78.75,127.01476743221282L81,129.55792939066887L83.25,130.21249891966582L85.5,130.37852329909802L87.75,131.36569546312094L90,134.9954305753112L92.25,135.45896557867528L94.5,133.34860509037972L96.75,136.52524972110987L99,135.88827235400677L101.25,135.51942379921675L103.5,140.37941017895938L105.75,138.95093718320132L108,138.40660219788552L110.25,138.96593799591065L112.5,141.7731076642871L114.75,141.0064837127924L117,141.0737532913685L119.25,142.6073308825493L121.5,143.40485980510712L123.75,143.47616476714612L126,144.08418232351542L128.25,144.4171805843711L130.5,144.307097697258L132.75,147.58365763127804L135,147.1500055655837L137.25,146.34361462444068L139.5,147.90038248300553L141.75,148.11559634059668L144,149.11268552541733L146.25,149.9728749856353L148.5,148.58159081786872L150.75,149.54352864772082L153,150.62302669286728L155.25,151.1273770943284L157.5,151.09014870375395L159.75,151.93332625329495L162,152.81832145303488L164.25,152.3398845434189L166.5,152.53542260974646L168.75,153.43542521595955L171,153.69581294953824L173.25,153.4241037234664L175.5,154.4985245704651L177.75,154.43126817941666L180,154.5007400751114L182.25,154.73748257160187L184.5,155.35712493360043L186.75,154.86274430304766L189,154.89098539352418L191.25,155.35108504593373L193.5,155.3716707766056L195.75,155.66928030699492L198,156.08423245847226L200.25,155.84713389873505L202.5,156.00632054507733L204.75,156.21066128611565L207,156.04277746528388L209.25,156.82520007491112L211.5,156.76690460890532L213.75,156.2718382269144L216,157.8198462702334L218.25,158.04235942438245L220.5,157.3831940419972L222.75,156.8454561173916L225,157.56350710764528L227.25,157.32904605343938L229.5,156.1347011268139L231.75,157.7173659928143L234,158.97214606180788L236.25,157.7907908499241L238.5,158.94515448957682L240.75,157.3529946036637L243,158.51907865852118L245.25,158.2412240445614" style="fill: none;" fill="none"></path></g><g><path stroke="rgb(0, 119, 187)" stroke-width="2px" d="M27,-15.389668589830407L29.25,14.058397167921058L31.5,38.64670073390006L33.75,57.29125370979308L36,68.22031175494193L38.25,74.4941725373268L40.5,81.2698187470436L42.75,86.88262833058833L45,90.38846662044524L47.25,94.02910781800746L49.5,96.64850687384605L51.75,99.22334527373313L54,101.08402630090713L56.25,105.1659023925662L58.5,106.80078657120465L60.75,107.90755642354488L63,109.27612507492303L65.25,112.00945777595042L67.5,111.88062881827354L69.75,113.52457282841205L72,116.92520761638879L74.25,119.0997518017888L76.5,119.36691792458295L78.75,121.75927391052245L81,122.54879800379275L83.25,126.41434589177369L85.5,124.21975007057189L87.75,124.96638173013925L90,127.4796080008149L92.25,125.69452447593211L94.5,128.45139691382647L96.75,129.42261216938496L99,128.99954309463502L101.25,133.70856525152922L103.5,130.73318866789342L105.75,132.34584526866675L108,133.4314227640629L110.25,133.1500470802188L112.5,134.40746465474368L114.75,134.72075415551663L117,134.46310283392668L119.25,136.7827098235488L121.5,138.09359622895718L123.75,136.748527751863L126,138.95280321836472L128.25,137.65534830987454L130.5,138.2554995059967L132.75,140.8238562360406L135,139.86789894998074L137.25,140.09369579851628L139.5,140.43741551935673L141.75,141.77607485800982L144,141.51263421177865L146.25,143.33747813254595L148.5,142.3329973384738L150.75,142.3755534902215L153,143.27580665946007L155.25,144.21682907044888L157.5,145.17610301971436L159.75,145.89865425378085L162,145.56315695643426L164.25,144.70418734252453L166.5,146.53840100169182L168.75,146.421243005991L171,146.24898751974106L173.25,146.6126863449812L175.5,147.48484348654748L177.75,147.2742386698723L180,147.33469029664994L182.25,148.07279621958733L184.5,147.49576935321093L186.75,147.5888469234109L189,147.99760093688965L191.25,148.64976374208928L193.5,149.19789014160634L195.75,148.74332925081254L198,149.38852244764567L200.25,148.92186200022698L202.5,148.8936275035143L204.75,149.52089225649834L207,149.17226018160582L209.25,149.41466012746096L211.5,150.32713154107333L213.75,149.17698131650687L216,150.25082191228867L218.25,150.53797373324633L220.5,150.32661722749472L222.75,149.87315090149642L225,150.3933922737837L227.25,150.62506416589022L229.5,149.9205732509494L231.75,150.69686366021634L234,151.36292611956597L236.25,151.32052162438632L238.5,151.82002560943366L240.75,151.62839764505625L243,151.67437596023083L245.25,151.13204547911883" style="fill: none;" fill="none"></path></g></g></g></g></g></g><g transform="translate(60, 177)" clip-path="url(#clip_1)"><clipPath id="clip_1"><rect width="270" height="23"></rect></clipPath><g><g><line x1="0" y1="0" x2="0" y2="5" style="visibility: inherit;" fill="rgb(0, 0, 0)" stroke="rgb(204, 204, 204)" stroke-width="1px"></line><line x1="22.5" y1="0" x2="22.5" y2="5" style="visibility: inherit;" fill="rgb(0, 0, 0)" stroke="rgb(204, 204, 204)" stroke-width="1px"></line><line x1="45" y1="0" x2="45" y2="5" style="visibility: inherit;" fill="rgb(0, 0, 0)" stroke="rgb(204, 204, 204)" stroke-width="1px"></line><line x1="67.5" y1="0" x2="67.5" y2="5" style="visibility: inherit;" fill="rgb(0, 0, 0)" stroke="rgb(204, 204, 204)" stroke-width="1px"></line><line x1="90" y1="0" x2="90" y2="5" style="visibility: inherit;" fill="rgb(0, 0, 0)" stroke="rgb(204, 204, 204)" stroke-width="1px"></line><line x1="112.5" y1="0" x2="112.5" y2="5" style="visibility: inherit;" fill="rgb(0, 0, 0)" stroke="rgb(204, 204, 204)" stroke-width="1px"></line><line x1="135" y1="0" x2="135" y2="5" style="visibility: inherit;" fill="rgb(0, 0, 0)" stroke="rgb(204, 204, 204)" stroke-width="1px"></line><line x1="157.5" y1="0" x2="157.5" y2="5" style="visibility: inherit;" fill="rgb(0, 0, 0)" stroke="rgb(204, 204, 204)" stroke-width="1px"></line><line x1="180" y1="0" x2="180" y2="5" style="visibility: inherit;" fill="rgb(0, 0, 0)" stroke="rgb(204, 204, 204)" stroke-width="1px"></line><line x1="202.5" y1="0" x2="202.5" y2="5" style="visibility: inherit;" fill="rgb(0, 0, 0)" stroke="rgb(204, 204, 204)" stroke-width="1px"></line><line x1="225" y1="0" x2="225" y2="5" style="visibility: inherit;" fill="rgb(0, 0, 0)" stroke="rgb(204, 204, 204)" stroke-width="1px"></line><line x1="247.5" y1="0" x2="247.5" y2="5" style="visibility: inherit;" fill="rgb(0, 0, 0)" stroke="rgb(204, 204, 204)" stroke-width="1px"></line><line x1="270" y1="0" x2="270" y2="5" style="visibility: inherit;" fill="rgb(0, 0, 0)" stroke="rgb(204, 204, 204)" stroke-width="1px"></line></g><g transform="translate(0, 8)"><text x="0" y="0" dx="0em" dy="0.95em" style="text-anchor: middle; visibility: hidden; font-family: Roboto, sans-serif; font-size: 12px; font-weight: 200;" fill="rgb(255, 255, 255)" stroke="none" stroke-width="1px">-10</text><text x="22.5" y="0" dx="0em" dy="0.95em" style="text-anchor: middle; visibility: inherit; font-family: Roboto, sans-serif; font-size: 12px; font-weight: 200;" fill="rgb(255, 255, 255)" stroke="none" stroke-width="1px">0</text><text x="45" y="0" dx="0em" dy="0.95em" style="text-anchor: middle; visibility: inherit; font-family: Roboto, sans-serif; font-size: 12px; font-weight: 200;" fill="rgb(255, 255, 255)" stroke="none" stroke-width="1px">10</text><text x="67.5" y="0" dx="0em" dy="0.95em" style="text-anchor: middle; visibility: inherit; font-family: Roboto, sans-serif; font-size: 12px; font-weight: 200;" fill="rgb(255, 255, 255)" stroke="none" stroke-width="1px">20</text><text x="90" y="0" dx="0em" dy="0.95em" style="text-anchor: middle; visibility: inherit; font-family: Roboto, sans-serif; font-size: 12px; font-weight: 200;" fill="rgb(255, 255, 255)" stroke="none" stroke-width="1px">30</text><text x="112.5" y="0" dx="0em" dy="0.95em" style="text-anchor: middle; visibility: inherit; font-family: Roboto, sans-serif; font-size: 12px; font-weight: 200;" fill="rgb(255, 255, 255)" stroke="none" stroke-width="1px">40</text><text x="135" y="0" dx="0em" dy="0.95em" style="text-anchor: middle; visibility: inherit; font-family: Roboto, sans-serif; font-size: 12px; font-weight: 200;" fill="rgb(255, 255, 255)" stroke="none" stroke-width="1px">50</text><text x="157.5" y="0" dx="0em" dy="0.95em" style="text-anchor: middle; visibility: inherit; font-family: Roboto, sans-serif; font-size: 12px; font-weight: 200;" fill="rgb(255, 255, 255)" stroke="none" stroke-width="1px">60</text><text x="180" y="0" dx="0em" dy="0.95em" style="text-anchor: middle; visibility: inherit; font-family: Roboto, sans-serif; font-size: 12px; font-weight: 200;" fill="rgb(255, 255, 255)" stroke="none" stroke-width="1px">70</text><text x="202.5" y="0" dx="0em" dy="0.95em" style="text-anchor: middle; visibility: inherit; font-family: Roboto, sans-serif; font-size: 12px; font-weight: 200;" fill="rgb(255, 255, 255)" stroke="none" stroke-width="1px">80</text><text x="225" y="0" dx="0em" dy="0.95em" style="text-anchor: middle; visibility: inherit; font-family: Roboto, sans-serif; font-size: 12px; font-weight: 200;" fill="rgb(255, 255, 255)" stroke="none" stroke-width="1px">90</text><text x="247.5" y="0" dx="0em" dy="0.95em" style="text-anchor: middle; visibility: inherit; font-family: Roboto, sans-serif; font-size: 12px; font-weight: 200;" fill="rgb(255, 255, 255)" stroke="none" stroke-width="1px">100</text><text x="270" y="0" dx="0em" dy="0.95em" style="text-anchor: middle; visibility: hidden; font-family: Roboto, sans-serif; font-size: 12px; font-weight: 200;" fill="rgb(255, 255, 255)" stroke="none" stroke-width="1px">110</text></g><line x1="0" y1="0" x2="270" y2="0" fill="rgb(0, 0, 0)" stroke="rgb(204, 204, 204)" stroke-width="1px"></line></g></g></g></g></svg>